<mxfile host="app.diagrams.net" agent="Mozilla/5.0 (Macintosh; Intel Mac OS X 10_15_7) AppleWebKit/537.36 (KHTML, like Gecko) Chrome/135.0.0.0 Safari/537.36" version="26.2.14">
  <diagram name="페이지-1" id="60vwVp8YrmRA52aaGq-R">
    <mxGraphModel grid="0" page="1" gridSize="10" guides="1" tooltips="1" connect="1" arrows="1" fold="1" pageScale="1" pageWidth="827" pageHeight="1169" background="#0E0E0E" math="0" shadow="0">
      <root>
        <mxCell id="0" />
        <mxCell id="1" parent="0" />
        <mxCell id="5jwri4eJxP5meEbUpFkf-6" style="rounded=0;orthogonalLoop=1;jettySize=auto;html=1;entryX=0;entryY=0.5;entryDx=0;entryDy=0;strokeColor=#FFFFFF;fontColor=#FFFFFF;" edge="1" parent="1" target="5jwri4eJxP5meEbUpFkf-4">
          <mxGeometry relative="1" as="geometry">
            <mxPoint x="170" y="370" as="sourcePoint" />
          </mxGeometry>
        </mxCell>
        <mxCell id="5jwri4eJxP5meEbUpFkf-1" value="User" style="shape=umlActor;verticalLabelPosition=bottom;verticalAlign=top;html=1;outlineConnect=0;strokeColor=#FFFFFF;fontColor=#FFFFFF;" vertex="1" parent="1">
          <mxGeometry x="130" y="340" width="30" height="60" as="geometry" />
        </mxCell>
        <mxCell id="5jwri4eJxP5meEbUpFkf-2" value="Helper" style="shape=umlActor;verticalLabelPosition=bottom;verticalAlign=top;html=1;outlineConnect=0;strokeColor=#FFFFFF;fontColor=#FFFFFF;" vertex="1" parent="1">
          <mxGeometry x="680" y="340" width="30" height="60" as="geometry" />
        </mxCell>
        <mxCell id="5jwri4eJxP5meEbUpFkf-3" value="프라이버시 보호 실시간 지원 서비스" style="swimlane;whiteSpace=wrap;html=1;strokeColor=#FFFFFF;fontColor=#000000;" vertex="1" parent="1">
          <mxGeometry x="200" y="160" width="440" height="480" as="geometry" />
        </mxCell>
        <mxCell id="5jwri4eJxP5meEbUpFkf-8" style="edgeStyle=orthogonalEdgeStyle;rounded=0;orthogonalLoop=1;jettySize=auto;html=1;exitX=0.5;exitY=1;exitDx=0;exitDy=0;entryX=0.5;entryY=0;entryDx=0;entryDy=0;strokeColor=#FFFFFF;fontColor=#FFFFFF;" edge="1" parent="5jwri4eJxP5meEbUpFkf-3" source="5jwri4eJxP5meEbUpFkf-16" target="5jwri4eJxP5meEbUpFkf-5">
          <mxGeometry relative="1" as="geometry" />
        </mxCell>
        <mxCell id="5jwri4eJxP5meEbUpFkf-4" value="로그인" style="ellipse;whiteSpace=wrap;html=1;strokeColor=#FFFFFF;fontColor=#000000;" vertex="1" parent="5jwri4eJxP5meEbUpFkf-3">
          <mxGeometry x="170" y="40" width="100" height="50" as="geometry" />
        </mxCell>
        <mxCell id="5jwri4eJxP5meEbUpFkf-19" style="edgeStyle=orthogonalEdgeStyle;rounded=0;orthogonalLoop=1;jettySize=auto;html=1;exitX=0.5;exitY=1;exitDx=0;exitDy=0;entryX=0.5;entryY=0;entryDx=0;entryDy=0;strokeColor=#FFFFFF;fontColor=#FFFFFF;" edge="1" parent="5jwri4eJxP5meEbUpFkf-3" source="5jwri4eJxP5meEbUpFkf-5" target="5jwri4eJxP5meEbUpFkf-18">
          <mxGeometry relative="1" as="geometry" />
        </mxCell>
        <mxCell id="5jwri4eJxP5meEbUpFkf-5" value="방 접속" style="ellipse;whiteSpace=wrap;html=1;strokeColor=#FFFFFF;fontColor=#000000;" vertex="1" parent="5jwri4eJxP5meEbUpFkf-3">
          <mxGeometry x="170" y="200" width="100" height="50" as="geometry" />
        </mxCell>
        <mxCell id="5jwri4eJxP5meEbUpFkf-23" style="rounded=0;orthogonalLoop=1;jettySize=auto;html=1;exitX=0.5;exitY=1;exitDx=0;exitDy=0;entryX=0.5;entryY=0;entryDx=0;entryDy=0;strokeColor=#FFFFFF;fontColor=#FFFFFF;" edge="1" parent="5jwri4eJxP5meEbUpFkf-3" source="5jwri4eJxP5meEbUpFkf-9" target="5jwri4eJxP5meEbUpFkf-21">
          <mxGeometry relative="1" as="geometry" />
        </mxCell>
        <mxCell id="5jwri4eJxP5meEbUpFkf-24" style="rounded=0;orthogonalLoop=1;jettySize=auto;html=1;exitX=1;exitY=1;exitDx=0;exitDy=0;entryX=0.5;entryY=0;entryDx=0;entryDy=0;strokeColor=#FFFFFF;fontColor=#FFFFFF;" edge="1" parent="5jwri4eJxP5meEbUpFkf-3" source="5jwri4eJxP5meEbUpFkf-9" target="5jwri4eJxP5meEbUpFkf-22">
          <mxGeometry relative="1" as="geometry" />
        </mxCell>
        <mxCell id="5jwri4eJxP5meEbUpFkf-9" value="화면 공유&lt;div&gt;(User)&lt;/div&gt;" style="ellipse;whiteSpace=wrap;html=1;strokeColor=#FFFFFF;fontColor=#000000;" vertex="1" parent="5jwri4eJxP5meEbUpFkf-3">
          <mxGeometry x="50" y="280" width="100" height="50" as="geometry" />
        </mxCell>
        <mxCell id="5jwri4eJxP5meEbUpFkf-10" value="얼굴 공유&lt;div&gt;(User, Helper)&lt;/div&gt;" style="ellipse;whiteSpace=wrap;html=1;strokeColor=#FFFFFF;fontColor=#000000;" vertex="1" parent="5jwri4eJxP5meEbUpFkf-3">
          <mxGeometry x="290" y="280" width="100" height="50" as="geometry" />
        </mxCell>
        <mxCell id="5jwri4eJxP5meEbUpFkf-13" style="rounded=0;orthogonalLoop=1;jettySize=auto;html=1;exitX=0;exitY=1;exitDx=0;exitDy=0;entryX=0.5;entryY=0;entryDx=0;entryDy=0;strokeColor=#FFFFFF;fontColor=#FFFFFF;" edge="1" parent="5jwri4eJxP5meEbUpFkf-3" source="5jwri4eJxP5meEbUpFkf-5" target="5jwri4eJxP5meEbUpFkf-9">
          <mxGeometry relative="1" as="geometry">
            <mxPoint x="170" y="205" as="sourcePoint" />
          </mxGeometry>
        </mxCell>
        <mxCell id="5jwri4eJxP5meEbUpFkf-14" style="rounded=0;orthogonalLoop=1;jettySize=auto;html=1;exitX=1;exitY=1;exitDx=0;exitDy=0;entryX=0.5;entryY=0;entryDx=0;entryDy=0;strokeColor=#FFFFFF;fontColor=#FFFFFF;" edge="1" parent="5jwri4eJxP5meEbUpFkf-3" source="5jwri4eJxP5meEbUpFkf-5" target="5jwri4eJxP5meEbUpFkf-10">
          <mxGeometry relative="1" as="geometry">
            <mxPoint x="270" y="205" as="sourcePoint" />
            <mxPoint x="100" y="245" as="targetPoint" />
          </mxGeometry>
        </mxCell>
        <mxCell id="5jwri4eJxP5meEbUpFkf-17" value="" style="edgeStyle=orthogonalEdgeStyle;rounded=0;orthogonalLoop=1;jettySize=auto;html=1;exitX=0.5;exitY=1;exitDx=0;exitDy=0;entryX=0.5;entryY=0;entryDx=0;entryDy=0;strokeColor=#FFFFFF;fontColor=#FFFFFF;" edge="1" parent="5jwri4eJxP5meEbUpFkf-3" source="5jwri4eJxP5meEbUpFkf-4" target="5jwri4eJxP5meEbUpFkf-16">
          <mxGeometry relative="1" as="geometry">
            <mxPoint x="420" y="290" as="sourcePoint" />
            <mxPoint x="420" y="380" as="targetPoint" />
          </mxGeometry>
        </mxCell>
        <mxCell id="5jwri4eJxP5meEbUpFkf-16" value="메인화면" style="ellipse;whiteSpace=wrap;html=1;strokeColor=#FFFFFF;fontColor=#000000;" vertex="1" parent="5jwri4eJxP5meEbUpFkf-3">
          <mxGeometry x="170" y="120" width="100" height="50" as="geometry" />
        </mxCell>
        <mxCell id="5jwri4eJxP5meEbUpFkf-18" value="채팅&lt;br&gt;&lt;div&gt;(User, Helper)&lt;/div&gt;" style="ellipse;whiteSpace=wrap;html=1;strokeColor=#FFFFFF;fontColor=#000000;" vertex="1" parent="5jwri4eJxP5meEbUpFkf-3">
          <mxGeometry x="170" y="280" width="100" height="50" as="geometry" />
        </mxCell>
        <mxCell id="5jwri4eJxP5meEbUpFkf-21" value="화면 영역 지정&lt;br&gt;&lt;div&gt;(User)&lt;/div&gt;" style="ellipse;whiteSpace=wrap;html=1;strokeColor=#FFFFFF;fontColor=#000000;" vertex="1" parent="5jwri4eJxP5meEbUpFkf-3">
          <mxGeometry x="50" y="380" width="130" height="50" as="geometry" />
        </mxCell>
        <mxCell id="5jwri4eJxP5meEbUpFkf-22" value="민감정보 자동 블러처리&lt;br&gt;&lt;div&gt;(User)&lt;/div&gt;" style="ellipse;whiteSpace=wrap;html=1;strokeColor=#FFFFFF;fontColor=#000000;" vertex="1" parent="5jwri4eJxP5meEbUpFkf-3">
          <mxGeometry x="214" y="380" width="156" height="50" as="geometry" />
        </mxCell>
        <mxCell id="5jwri4eJxP5meEbUpFkf-7" style="rounded=0;orthogonalLoop=1;jettySize=auto;html=1;entryX=1;entryY=0.5;entryDx=0;entryDy=0;strokeColor=#FFFFFF;fontColor=#FFFFFF;" edge="1" parent="1" target="5jwri4eJxP5meEbUpFkf-4">
          <mxGeometry relative="1" as="geometry">
            <mxPoint x="660" y="370" as="sourcePoint" />
            <mxPoint x="380" y="275" as="targetPoint" />
          </mxGeometry>
        </mxCell>
      </root>
    </mxGraphModel>
  </diagram>
</mxfile>
